<?xml version="1.0" encoding="UTF-8"?>
<svg width="230px" height="230px" viewBox="0 0 230 230" version="1.1" xmlns="http://www.w3.org/2000/svg" xmlns:xlink="http://www.w3.org/1999/xlink">
    <!-- Generator: Sketch 55.2 (78181) - https://sketchapp.com -->
    <title>Combined-Shape</title>
    <desc>Created with Sketch.</desc>
    <g id="Page-1" stroke="none" stroke-width="1" fill="none" fill-rule="evenodd">
        <g id="Group" transform="translate(-255.000000, 0.000000)" fill="#FFFFFF" fill-rule="nonzero">
            <g id="crest" transform="translate(255.000000, 0.000000)">
                <path d="M115,230 C51.4880556,230 0,178.511944 0,115 C0,51.4880556 51.4880556,0 115,0 C178.511944,0 230,51.4880556 230,115 C230,178.511944 178.511944,230 115,230 Z M115,224.888889 C175.694444,224.888889 224.888889,175.694444 224.888889,115 C224.888889,54.3055556 175.694444,5.11111111 115,5.11111111 C54.3055556,5.11111111 5.11111111,54.3055556 5.11111111,115 C5.11111111,175.694444 54.3055556,224.888889 115,224.888889 Z M165.612778,64.4127778 C164.236232,63.1413537 163.665805,61.2185895 164.126282,59.4021757 C164.586759,57.5857619 166.004301,56.1669654 167.820307,55.7048817 C169.636313,55.2427981 171.559581,55.8115236 172.832222,57.1869444 C174.696346,59.2016163 174.63637,62.3289438 172.69637,64.2706599 C170.756371,66.2123761 167.629098,66.2751185 165.612778,64.4127778 L165.612778,64.4127778 Z M165.612778,165.612778 C166.879196,164.215093 168.812429,163.628449 170.642018,164.086643 C172.471607,164.544837 173.900163,165.973393 174.358357,167.802982 C174.816551,169.632571 174.229907,171.565804 172.832222,172.832222 C170.812855,174.661937 167.713133,174.585618 165.786258,172.658742 C163.859382,170.731867 163.783063,167.632145 165.612778,165.612778 L165.612778,165.612778 Z M64.4127778,165.612778 C65.7881987,166.885419 66.3569242,168.808687 65.8948405,170.624693 C65.4327568,172.440699 64.0139604,173.858241 62.1975466,174.318718 C60.3811327,174.779195 58.4583685,174.208768 57.1869444,172.832222 C55.3246038,170.815902 55.3873461,167.688629 57.3290623,165.74863 C59.2707784,163.80863 62.3981059,163.748654 64.4127778,165.612778 L64.4127778,165.612778 Z M64.4127778,64.4127778 C63.1335705,65.7592296 61.2246478,66.3058125 59.426664,65.8404546 C57.6286802,65.3750966 56.2246256,63.971042 55.7592677,62.1730582 C55.2939097,60.3750744 55.8404926,58.4661518 57.1869444,57.1869444 C59.1964509,55.2777968 62.3614643,55.318319 64.3214338,57.2782885 C66.2814032,59.2382579 66.3219254,62.4032714 64.4127778,64.4127778 Z M82.8766667,93.0988889 L71.6322222,71.6322222 L93.0988889,82.8766667 L115,12.7777778 L136.9075,82.8766667 L158.374167,71.6322222 L147.129722,93.0988889 L217.222222,115 L147.123333,136.9075 L158.367778,158.374167 L136.901111,147.129722 L115,217.222222 L93.0925,147.123333 L71.6258333,158.367778 L82.8702778,136.901111 L12.7777778,115 L82.8766667,93.0925 L82.8766667,93.0988889 Z M80.0016667,130.652778 C77.7972151,125.729205 76.6606065,120.394547 76.6666667,115 L29.9127778,115 L80.0016667,130.652778 L80.0016667,130.652778 Z M130.652778,150.004722 C125.728724,152.206976 120.394086,153.341403 115,153.333333 L115,200.087222 L130.652778,149.998333 L130.652778,150.004722 Z M150.004722,99.3472222 C152.206976,104.271276 153.341403,109.605914 153.333333,115 L200.087222,115 L149.998333,99.3472222 L150.004722,99.3472222 Z M115,76.6666667 L115,29.9127778 L99.3472222,80.0016667 C104.270795,77.7972151 109.605453,76.6606065 115,76.6666667 Z M115,148.222222 C133.348127,148.222222 148.222222,133.348127 148.222222,115 C148.222222,96.6518733 133.348127,81.7777778 115,81.7777778 C96.6518733,81.7777778 81.7777778,96.6518733 81.7777778,115 C81.7777778,133.348127 96.6518733,148.222222 115,148.222222 Z M113.083333,93.9166667 L132.25,93.9166667 L132.25,132.25 L93.9166667,132.25 L93.9166667,113.083333 L113.083333,93.9166667 Z M99.0277778,115.198056 L99.0277778,127.138889 L127.138889,127.138889 L127.138889,99.0277778 L115.198056,99.0277778 L99.0277778,115.198056 Z M124.583333,124.583333 L116.277778,109.888889 L124.583333,101.583333 L124.583333,124.583333 Z M124.583333,124.583333 L101.583333,124.583333 L109.888889,116.277778 L124.583333,124.583333 Z" id="Combined-Shape"></path>
            </g>
        </g>
    </g>
</svg>